<svg xmlns="http://www.w3.org/2000/svg" fill="#ff540e" viewBox="0 0 1280 640"><path d="M265.091 259.636h18.182a8 8 0 0 1 8 8V320a8 8 0 0 1-8 8h-18.182v18.182a8 8 0 0 1-8 8h-70.546v44.363a8 8 0 0 1-8 8h-26.181a8 8 0 0 1-8-8v-157.09a8 8 0 0 1 8-8h104.727a8 8 0 0 1 8 8zm-16 52.364v-36.364h-62.546V312zm184.873-52.364h18.181a8 8 0 0 1 8 8V320a8 8 0 0 1-8 8h-18.181v36.364h18.181a8 8 0 0 1 8 8v26.181a8 8 0 0 1-8 8h-26.181a8 8 0 0 1-8-8v-18.181h-18.182a8 8 0 0 1-8-8v-18.182h-36.364v44.363a8 8 0 0 1-8 8h-26.182a8 8 0 0 1-8-8v-157.09a8 8 0 0 1 8-8h104.728a8 8 0 0 1 8 8zm-16 52.364v-36.364h-62.546V312zm259.2-52.364v-18.181a8 8 0 0 1 8-8h78.545a8 8 0 0 1 8 8v18.181h18.182a8 8 0 0 1 8 8v26.182a8 8 0 0 1-8 8h-18.182V312h18.182a8 8 0 0 1 8 8v52.364a8 8 0 0 1-8 8h-18.182v18.181a8 8 0 0 1-8 8h-78.545a8 8 0 0 1-8-8v-18.181h-18.182a8 8 0 0 1-8-8v-26.182a8 8 0 0 1 8-8h26.182a8 8 0 0 1 8 8v18.182h62.545V328h-70.545a8 8 0 0 1-8-8v-18.182h-18.182a8 8 0 0 1-8-8v-26.182a8 8 0 0 1 8-8zm16 26.182h62.545v-10.182h-62.545zm-203.055-52.363h130.909a8 8 0 0 1 8 8v26.181a8 8 0 0 1-8 8h-96.727v10.182h70.545a8 8 0 0 1 8 8V320a8 8 0 0 1-8 8h-70.545v36.364h96.727a8 8 0 0 1 8 8v26.181a8 8 0 0 1-8 8H490.109a8 8 0 0 1-8-8v-157.09a8 8 0 0 1 8-8m337.746 0h130.909a8 8 0 0 1 8 8v26.181a8 8 0 0 1-8 8h-96.728v10.182h70.546a8 8 0 0 1 8 8V320a8 8 0 0 1-8 8h-70.546v36.364h96.728a8 8 0 0 1 8 8v26.181a8 8 0 0 1-8 8H827.855a8 8 0 0 1-8-8v-157.09a8 8 0 0 1 8-8m168.872 0h130.913c4.42 0 8 3.581 8 8v26.181c0 4.419-3.58 8-8 8h-44.37v122.909c0 4.419-3.58 8-8 8h-26.18c-4.42 0-8-3.581-8-8V275.636h-44.363a8 8 0 0 1-8-8v-26.181a8 8 0 0 1 8-8"/></svg>
