<svg xmlns="http://www.w3.org/2000/svg" viewBox="0 0 1280 640" stroke-linejoin="round"><path fill="#ff540e" d="M520 440h201.6c21.066 0 38.4-17.334 38.4-38.4V238.4c0-21.066-17.334-38.4-38.4-38.4H558.4c-21.066 0-38.4 17.334-38.4 38.4z"/><path fill="#fff" d="M585.062 255.106h3.665a2.88 2.88 0 0 1 2.88 2.88v16.495a2.88 2.88 0 0 1-2.88 2.88h-3.665v2.618a2.88 2.88 0 0 1-2.88 2.88h-16.757v13.614a2.88 2.88 0 0 1-2.88 2.88H556a2.88 2.88 0 0 1-2.88-2.88v-43.985a2.88 2.88 0 0 1 2.88-2.88h26.182a2.88 2.88 0 0 1 2.88 2.88zm-5.76 5.76h-13.877v10.735h13.877zm5.76 48h3.665a2.88 2.88 0 0 1 2.88 2.88v16.495a2.88 2.88 0 0 1-2.88 2.88h-3.665v5.236h3.665a2.88 2.88 0 0 1 2.88 2.88v10.996a2.88 2.88 0 0 1-2.88 2.88h-6.545a2.88 2.88 0 0 1-2.88-2.88v-8.116h-3.666a2.88 2.88 0 0 1-2.88-2.88v-2.618h-7.331v13.614a2.88 2.88 0 0 1-2.88 2.88H556a2.88 2.88 0 0 1-2.88-2.88v-43.985a2.88 2.88 0 0 1 2.88-2.88h26.182a2.88 2.88 0 0 1 2.88 2.88zm-5.76 16.495v-10.735h-13.877v10.735zM556 357.128h32.727a2.88 2.88 0 0 1 2.88 2.88v5.498a2.88 2.88 0 0 1-2.88 2.88h-23.302v7.157h16.757a2.88 2.88 0 0 1 2.88 2.88v5.498a2.88 2.88 0 0 1-2.88 2.88h-16.757v8.814h23.302a2.88 2.88 0 0 1 2.88 2.88v5.498a2.88 2.88 0 0 1-2.88 2.88H556a2.88 2.88 0 0 1-2.88-2.88v-43.985a2.88 2.88 0 0 1 2.88-2.88m39.338 21.535v-13.157a2.88 2.88 0 0 1 2.88-2.88h3.666v-2.618a2.88 2.88 0 0 1 2.88-2.88H624.4a2.88 2.88 0 0 1 2.88 2.88v2.618h3.665a2.88 2.88 0 0 1 2.88 2.88v5.498a2.88 2.88 0 0 1-2.88 2.88H624.4a2.873 2.873 0 0 1-2.88-2.88v-2.618h-13.876v8.575H624.4a2.88 2.88 0 0 1 2.88 2.88v2.618h3.665a2.88 2.88 0 0 1 2.88 2.88v13.156a2.88 2.88 0 0 1-2.88 2.88h-3.665v2.618a2.88 2.88 0 0 1-2.88 2.88h-19.636a2.88 2.88 0 0 1-2.88-2.88v-2.618h-3.666a2.88 2.88 0 0 1-2.88-2.88v-5.498a2.88 2.88 0 0 1 2.88-2.88h6.546a2.88 2.88 0 0 1 2.88 2.88v2.618h13.876v-8.574h-16.756a2.88 2.88 0 0 1-2.88-2.88v-2.618h-3.666a2.88 2.88 0 0 1-2.88-2.88m45.098-21.535h32.728a2.88 2.88 0 0 1 2.88 2.88v5.498a2.88 2.88 0 0 1-2.88 2.88h-23.302v7.157h16.756a2.88 2.88 0 0 1 2.88 2.88v5.498a2.88 2.88 0 0 1-2.88 2.88h-16.756v8.814h23.302a2.88 2.88 0 0 1 2.88 2.88v5.498a2.88 2.88 0 0 1-2.88 2.88h-32.728a2.88 2.88 0 0 1-2.88-2.88v-43.985a2.88 2.88 0 0 1 2.88-2.88m42.219 0h32.727a2.88 2.88 0 0 1 2.88 2.88v5.498a2.88 2.88 0 0 1-2.88 2.88h-10.211v35.607a2.88 2.88 0 0 1-2.88 2.88h-6.546a2.88 2.88 0 0 1-2.88-2.88v-35.607h-10.21a2.88 2.88 0 0 1-2.88-2.88v-5.498a2.88 2.88 0 0 1 2.88-2.88"/></svg>
