<svg xmlns="http://www.w3.org/2000/svg" viewBox="0 0 1280 640"><path fill="#f51" d="M253 266c5.04 0 9-3.96 9-9s-3.96-9-9-9-9 3.96-9 9 3.96 9 9 9m90 0c5.04 0 9-3.96 9-9s-3.96-9-9-9-9 3.96-9 9 3.96 9 9 9m-18 0c5.04 0 9-3.96 9-9s-3.96-9-9-9-9 3.96-9 9 3.96 9 9 9m-18 0c5.04 0 9-3.96 9-9s-3.96-9-9-9-9 3.96-9 9 3.96 9 9 9m-36 0c5.04 0 9-3.96 9-9s-3.96-9-9-9-9 3.96-9 9 3.96 9 9 9m72 18c5.04 0 9-3.96 9-9s-3.96-9-9-9-9 3.96-9 9 3.96 9 9 9m-72 0c5.04 0 9-3.96 9-9s-3.96-9-9-9-9 3.96-9 9 3.96 9 9 9m90 0c5.04 0 9-3.96 9-9s-3.96-9-9-9-9 3.96-9 9 3.96 9 9 9m-72 0c5.04 0 9-3.96 9-9s-3.96-9-9-9-9 3.96-9 9 3.96 9 9 9m18 0c5.04 0 9-3.96 9-9s-3.96-9-9-9-9 3.96-9 9 3.96 9 9 9m18 0c5.04 0 9-3.96 9-9s-3.96-9-9-9-9 3.96-9 9 3.96 9 9 9m-72 0c5.04 0 9-3.96 9-9s-3.96-9-9-9-9 3.96-9 9 3.96 9 9 9m90 18c5.04 0 9-3.96 9-9s-3.96-9-9-9-9 3.96-9 9 3.96 9 9 9m36 0c5.04 0 9-3.96 9-9s-3.96-9-9-9-9 3.96-9 9 3.96 9 9 9m-90 0c5.04 0 9-3.96 9-9s-3.96-9-9-9-9 3.96-9 9 3.96 9 9 9m-18 0c5.04 0 9-3.96 9-9s-3.96-9-9-9-9 3.96-9 9 3.96 9 9 9m-18 0c5.04 0 9-3.96 9-9s-3.96-9-9-9-9 3.96-9 9 3.96 9 9 9m108 0c5.04 0 9-3.96 9-9s-3.96-9-9-9-9 3.96-9 9 3.96 9 9 9m18 18c5.04 0 9-3.96 9-9s-3.96-9-9-9-9 3.96-9 9 3.96 9 9 9m-18 0c5.04 0 9-3.96 9-9s-3.96-9-9-9-9 3.96-9 9 3.96 9 9 9m-90 0c5.04 0 9-3.96 9-9s-3.96-9-9-9-9 3.96-9 9 3.96 9 9 9m-18 0c5.04 0 9-3.96 9-9s-3.96-9-9-9-9 3.96-9 9 3.96 9 9 9m126 18c5.04 0 9-3.96 9-9s-3.96-9-9-9-9 3.96-9 9 3.96 9 9 9m-108 0c5.04 0 9-3.96 9-9s-3.96-9-9-9-9 3.96-9 9 3.96 9 9 9m-18 0c5.04 0 9-3.96 9-9s-3.96-9-9-9-9 3.96-9 9 3.96 9 9 9m108 0c5.04 0 9-3.96 9-9s-3.96-9-9-9-9 3.96-9 9 3.96 9 9 9m-18 18c5.04 0 9-3.96 9-9s-3.96-9-9-9-9 3.96-9 9 3.96 9 9 9m-90 0c5.04 0 9-3.96 9-9s-3.96-9-9-9-9 3.96-9 9 3.96 9 9 9m18 0c5.04 0 9-3.96 9-9s-3.96-9-9-9-9 3.96-9 9 3.96 9 9 9m108 0c5.04 0 9-3.96 9-9s-3.96-9-9-9-9 3.96-9 9 3.96 9 9 9m-18 0c5.04 0 9-3.96 9-9s-3.96-9-9-9-9 3.96-9 9 3.96 9 9 9m0 18c5.04 0 9-3.96 9-9s-3.96-9-9-9-9 3.96-9 9 3.96 9 9 9m-18 0c5.04 0 9-3.96 9-9s-3.96-9-9-9-9 3.96-9 9 3.96 9 9 9m-90 0c5.04 0 9-3.96 9-9s-3.96-9-9-9-9 3.96-9 9 3.96 9 9 9m36 0c5.04 0 9-3.96 9-9s-3.96-9-9-9-9 3.96-9 9 3.96 9 9 9m18 0c5.04 0 9-3.96 9-9s-3.96-9-9-9-9 3.96-9 9 3.96 9 9 9m18 0c5.04 0 9-3.96 9-9s-3.96-9-9-9-9 3.96-9 9 3.96 9 9 9m-54 0c5.04 0 9-3.96 9-9s-3.96-9-9-9-9 3.96-9 9 3.96 9 9 9m72 18c5.04 0 9-3.96 9-9s-3.96-9-9-9-9 3.96-9 9 3.96 9 9 9m-18 0c5.04 0 9-3.96 9-9s-3.96-9-9-9-9 3.96-9 9 3.96 9 9 9m-18 0c5.04 0 9-3.96 9-9s-3.96-9-9-9-9 3.96-9 9 3.96 9 9 9m-36 0c5.04 0 9-3.96 9-9s-3.96-9-9-9-9 3.96-9 9 3.96 9 9 9m18 0c5.04 0 9-3.96 9-9s-3.96-9-9-9-9 3.96-9 9 3.96 9 9 9m-36 0c5.04 0 9-3.96 9-9s-3.96-9-9-9-9 3.96-9 9 3.96 9 9 9m18 18c5.04 0 9-3.96 9-9s-3.96-9-9-9-9 3.96-9 9 3.96 9 9 9m-18 0c5.04 0 9-3.96 9-9s-3.96-9-9-9-9 3.96-9 9 3.96 9 9 9m18 18c5.04 0 9-3.96 9-9s-3.96-9-9-9-9 3.96-9 9 3.96 9 9 9m-18 0c5.04 0 9-3.96 9-9s-3.96-9-9-9-9 3.96-9 9 3.96 9 9 9m162-162c5.04 0 9-3.96 9-9s-3.96-9-9-9-9 3.96-9 9 3.96 9 9 9m18 0c5.04 0 9-3.96 9-9s-3.96-9-9-9-9 3.96-9 9 3.96 9 9 9m36 0c5.04 0 9-3.96 9-9s-3.96-9-9-9-9 3.96-9 9 3.96 9 9 9m18 0c5.04 0 9-3.96 9-9s-3.96-9-9-9-9 3.96-9 9 3.96 9 9 9m-72 18c5.04 0 9-3.96 9-9s-3.96-9-9-9-9 3.96-9 9 3.96 9 9 9m18 0c5.04 0 9-3.96 9-9s-3.96-9-9-9-9 3.96-9 9 3.96 9 9 9m18 0c5.04 0 9-3.96 9-9s-3.96-9-9-9-9 3.96-9 9 3.96 9 9 9m18 0c5.04 0 9-3.96 9-9s-3.96-9-9-9-9 3.96-9 9 3.96 9 9 9m18 0c5.04 0 9-3.96 9-9s-3.96-9-9-9-9 3.96-9 9 3.96 9 9 9m-72 18c5.04 0 9-3.96 9-9s-3.96-9-9-9-9 3.96-9 9 3.96 9 9 9m18 0c5.04 0 9-3.96 9-9s-3.96-9-9-9-9 3.96-9 9 3.96 9 9 9m18 0c5.04 0 9-3.96 9-9s-3.96-9-9-9-9 3.96-9 9 3.96 9 9 9m-36 18c5.04 0 9-3.96 9-9s-3.96-9-9-9-9 3.96-9 9 3.96 9 9 9m18 0c5.04 0 9-3.96 9-9s-3.96-9-9-9-9 3.96-9 9 3.96 9 9 9m-18 18c5.04 0 9-3.96 9-9s-3.96-9-9-9-9 3.96-9 9 3.96 9 9 9m18 0c5.04 0 9-3.96 9-9s-3.96-9-9-9-9 3.96-9 9 3.96 9 9 9m-18 18c5.04 0 9-3.96 9-9s-3.96-9-9-9-9 3.96-9 9 3.96 9 9 9m18 0c5.04 0 9-3.96 9-9s-3.96-9-9-9-9 3.96-9 9 3.96 9 9 9m-18 18c5.04 0 9-3.96 9-9s-3.96-9-9-9-9 3.96-9 9 3.96 9 9 9m18 0c5.04 0 9-3.96 9-9s-3.96-9-9-9-9 3.96-9 9 3.96 9 9 9m-18 18c5.04 0 9-3.96 9-9s-3.96-9-9-9-9 3.96-9 9 3.96 9 9 9m18 0c5.04 0 9-3.96 9-9s-3.96-9-9-9-9 3.96-9 9 3.96 9 9 9m144-126c5.04 0 9-3.96 9-9s-3.96-9-9-9-9 3.96-9 9 3.96 9 9 9m-18 0c5.04 0 9-3.96 9-9s-3.96-9-9-9-9 3.96-9 9 3.96 9 9 9m-18 0c5.04 0 9-3.96 9-9s-3.96-9-9-9-9 3.96-9 9 3.96 9 9 9m36 18c5.04 0 9-3.96 9-9s-3.96-9-9-9-9 3.96-9 9 3.96 9 9 9m-54 0c5.04 0 9-3.96 9-9s-3.96-9-9-9-9 3.96-9 9 3.96 9 9 9m72 0c5.04 0 9-3.96 9-9s-3.96-9-9-9-9 3.96-9 9 3.96 9 9 9m-36 0c5.04 0 9-3.96 9-9s-3.96-9-9-9-9 3.96-9 9 3.96 9 9 9m-18 0c5.04 0 9-3.96 9-9s-3.96-9-9-9-9 3.96-9 9 3.96 9 9 9m-36 18c5.04 0 9-3.96 9-9s-3.96-9-9-9-9 3.96-9 9 3.96 9 9 9m90 0c5.04 0 9-3.96 9-9s-3.96-9-9-9-9 3.96-9 9 3.96 9 9 9m-72 0c5.04 0 9-3.96 9-9s-3.96-9-9-9-9 3.96-9 9 3.96 9 9 9m90 0c5.04 0 9-3.96 9-9s-3.96-9-9-9-9 3.96-9 9 3.96 9 9 9m-90 18c5.04 0 9-3.96 9-9s-3.96-9-9-9-9 3.96-9 9 3.96 9 9 9m72 0c5.04 0 9-3.96 9-9s-3.96-9-9-9-9 3.96-9 9 3.96 9 9 9m18 0c5.04 0 9-3.96 9-9s-3.96-9-9-9-9 3.96-9 9 3.96 9 9 9m-108 0c5.04 0 9-3.96 9-9s-3.96-9-9-9-9 3.96-9 9 3.96 9 9 9m36 0c5.04 0 9-3.96 9-9s-3.96-9-9-9-9 3.96-9 9 3.96 9 9 9m18 0c5.04 0 9-3.96 9-9s-3.96-9-9-9-9 3.96-9 9 3.96 9 9 9m18 0c5.04 0 9-3.96 9-9s-3.96-9-9-9-9 3.96-9 9 3.96 9 9 9m-54 18c5.04 0 9-3.96 9-9s-3.96-9-9-9-9 3.96-9 9 3.96 9 9 9m18 0c5.04 0 9-3.96 9-9s-3.96-9-9-9-9 3.96-9 9 3.96 9 9 9m18 0c5.04 0 9-3.96 9-9s-3.96-9-9-9-9 3.96-9 9 3.96 9 9 9m18 0c5.04 0 9-3.96 9-9s-3.96-9-9-9-9 3.96-9 9 3.96 9 9 9m18 0c5.04 0 9-3.96 9-9s-3.96-9-9-9-9 3.96-9 9 3.96 9 9 9m18 0c5.04 0 9-3.96 9-9s-3.96-9-9-9-9 3.96-9 9 3.96 9 9 9m-108 0c5.04 0 9-3.96 9-9s-3.96-9-9-9-9 3.96-9 9 3.96 9 9 9m18 18c5.04 0 9-3.96 9-9s-3.96-9-9-9-9 3.96-9 9 3.96 9 9 9m-18 0c5.04 0 9-3.96 9-9s-3.96-9-9-9-9 3.96-9 9 3.96 9 9 9m18 18c5.04 0 9-3.96 9-9s-3.96-9-9-9-9 3.96-9 9 3.96 9 9 9m18 0c5.04 0 9-3.96 9-9s-3.96-9-9-9-9 3.96-9 9 3.96 9 9 9m18 0c5.04 0 9-3.96 9-9s-3.96-9-9-9-9 3.96-9 9 3.96 9 9 9m18 0c5.04 0 9-3.96 9-9s-3.96-9-9-9-9 3.96-9 9 3.96 9 9 9m18 0c5.04 0 9-3.96 9-9s-3.96-9-9-9-9 3.96-9 9 3.96 9 9 9m18 0c5.04 0 9-3.96 9-9s-3.96-9-9-9-9 3.96-9 9 3.96 9 9 9m-72 18c5.04 0 9-3.96 9-9s-3.96-9-9-9-9 3.96-9 9 3.96 9 9 9m18 0c5.04 0 9-3.96 9-9s-3.96-9-9-9-9 3.96-9 9 3.96 9 9 9m18 0c5.04 0 9-3.96 9-9s-3.96-9-9-9-9 3.96-9 9 3.96 9 9 9m18 0c5.04 0 9-3.96 9-9s-3.96-9-9-9-9 3.96-9 9 3.96 9 9 9m108-126c5.04 0 9-3.96 9-9s-3.96-9-9-9-9 3.96-9 9 3.96 9 9 9m36 0c5.04 0 9-3.96 9-9s-3.96-9-9-9-9 3.96-9 9 3.96 9 9 9m-18 0c5.04 0 9-3.96 9-9s-3.96-9-9-9-9 3.96-9 9 3.96 9 9 9m-36 0c5.04 0 9-3.96 9-9s-3.96-9-9-9-9 3.96-9 9 3.96 9 9 9m-18 0c5.04 0 9-3.96 9-9s-3.96-9-9-9-9 3.96-9 9 3.96 9 9 9m54 18c5.04 0 9-3.96 9-9s-3.96-9-9-9-9 3.96-9 9 3.96 9 9 9m-18 0c5.04 0 9-3.96 9-9s-3.96-9-9-9-9 3.96-9 9 3.96 9 9 9m-18 0c5.04 0 9-3.96 9-9s-3.96-9-9-9-9 3.96-9 9 3.96 9 9 9m54 0c5.04 0 9-3.96 9-9s-3.96-9-9-9-9 3.96-9 9 3.96 9 9 9m18 0c5.04 0 9-3.96 9-9s-3.96-9-9-9-9 3.96-9 9 3.96 9 9 9m-108 0c5.04 0 9-3.96 9-9s-3.96-9-9-9-9 3.96-9 9 3.96 9 9 9m18 0c5.04 0 9-3.96 9-9s-3.96-9-9-9-9 3.96-9 9 3.96 9 9 9m-18 18c5.04 0 9-3.96 9-9s-3.96-9-9-9-9 3.96-9 9 3.96 9 9 9m18 0c5.04 0 9-3.96 9-9s-3.96-9-9-9-9 3.96-9 9 3.96 9 9 9m72 18c5.04 0 9-3.96 9-9s-3.96-9-9-9-9 3.96-9 9 3.96 9 9 9m-18 0c5.04 0 9-3.96 9-9s-3.96-9-9-9-9 3.96-9 9 3.96 9 9 9m-18 0c5.04 0 9-3.96 9-9s-3.96-9-9-9-9 3.96-9 9 3.96 9 9 9m-18 0c5.04 0 9-3.96 9-9s-3.96-9-9-9-9 3.96-9 9 3.96 9 9 9m-18 0c5.04 0 9-3.96 9-9s-3.96-9-9-9-9 3.96-9 9 3.96 9 9 9m-18 0c5.04 0 9-3.96 9-9s-3.96-9-9-9-9 3.96-9 9 3.96 9 9 9m108 18c5.04 0 9-3.96 9-9s-3.96-9-9-9-9 3.96-9 9 3.96 9 9 9m-36 0c5.04 0 9-3.96 9-9s-3.96-9-9-9-9 3.96-9 9 3.96 9 9 9m18 0c5.04 0 9-3.96 9-9s-3.96-9-9-9-9 3.96-9 9 3.96 9 9 9m-54 0c5.04 0 9-3.96 9-9s-3.96-9-9-9-9 3.96-9 9 3.96 9 9 9m18 0c5.04 0 9-3.96 9-9s-3.96-9-9-9-9 3.96-9 9 3.96 9 9 9m-36 0c5.04 0 9-3.96 9-9s-3.96-9-9-9-9 3.96-9 9 3.96 9 9 9m90 18c5.04 0 9-3.96 9-9s-3.96-9-9-9-9 3.96-9 9 3.96 9 9 9m-18 0c5.04 0 9-3.96 9-9s-3.96-9-9-9-9 3.96-9 9 3.96 9 9 9m18 18c5.04 0 9-3.96 9-9s-3.96-9-9-9-9 3.96-9 9 3.96 9 9 9m-18 0c5.04 0 9-3.96 9-9s-3.96-9-9-9-9 3.96-9 9 3.96 9 9 9m-54 0c5.04 0 9-3.96 9-9s-3.96-9-9-9-9 3.96-9 9 3.96 9 9 9m18 0c5.04 0 9-3.96 9-9s-3.96-9-9-9-9 3.96-9 9 3.96 9 9 9m18 0c5.04 0 9-3.96 9-9s-3.96-9-9-9-9 3.96-9 9 3.96 9 9 9m-54 0c5.04 0 9-3.96 9-9s-3.96-9-9-9-9 3.96-9 9 3.96 9 9 9m-18 0c5.04 0 9-3.96 9-9s-3.96-9-9-9-9 3.96-9 9 3.96 9 9 9m54 18c5.04 0 9-3.96 9-9s-3.96-9-9-9-9 3.96-9 9 3.96 9 9 9m36 0c5.04 0 9-3.96 9-9s-3.96-9-9-9-9 3.96-9 9 3.96 9 9 9m-18 0c5.04 0 9-3.96 9-9s-3.96-9-9-9-9 3.96-9 9 3.96 9 9 9m-36 0c5.04 0 9-3.96 9-9s-3.96-9-9-9-9 3.96-9 9 3.96 9 9 9m-18 0c5.04 0 9-3.96 9-9s-3.96-9-9-9-9 3.96-9 9 3.96 9 9 9m198-126c5.04 0 9-3.96 9-9s-3.96-9-9-9-9 3.96-9 9 3.96 9 9 9m-18 0c5.04 0 9-3.96 9-9s-3.96-9-9-9-9 3.96-9 9 3.96 9 9 9m-18 0c5.04 0 9-3.96 9-9s-3.96-9-9-9-9 3.96-9 9 3.96 9 9 9m36 18c5.04 0 9-3.96 9-9s-3.96-9-9-9-9 3.96-9 9 3.96 9 9 9m-54 0c5.04 0 9-3.96 9-9s-3.96-9-9-9-9 3.96-9 9 3.96 9 9 9m72 0c5.04 0 9-3.96 9-9s-3.96-9-9-9-9 3.96-9 9 3.96 9 9 9m-36 0c5.04 0 9-3.96 9-9s-3.96-9-9-9-9 3.96-9 9 3.96 9 9 9m-18 0c5.04 0 9-3.96 9-9s-3.96-9-9-9-9 3.96-9 9 3.96 9 9 9m-36 18c5.04 0 9-3.96 9-9s-3.96-9-9-9-9 3.96-9 9 3.96 9 9 9m90 0c5.04 0 9-3.96 9-9s-3.96-9-9-9-9 3.96-9 9 3.96 9 9 9m-72 0c5.04 0 9-3.96 9-9s-3.96-9-9-9-9 3.96-9 9 3.96 9 9 9m90 0c5.04 0 9-3.96 9-9s-3.96-9-9-9-9 3.96-9 9 3.96 9 9 9m-90 18c5.04 0 9-3.96 9-9s-3.96-9-9-9-9 3.96-9 9 3.96 9 9 9m72 0c5.04 0 9-3.96 9-9s-3.96-9-9-9-9 3.96-9 9 3.96 9 9 9m18 0c5.04 0 9-3.96 9-9s-3.96-9-9-9-9 3.96-9 9 3.96 9 9 9m-108 0c5.04 0 9-3.96 9-9s-3.96-9-9-9-9 3.96-9 9 3.96 9 9 9m36 0c5.04 0 9-3.96 9-9s-3.96-9-9-9-9 3.96-9 9 3.96 9 9 9m18 0c5.04 0 9-3.96 9-9s-3.96-9-9-9-9 3.96-9 9 3.96 9 9 9m18 0c5.04 0 9-3.96 9-9s-3.96-9-9-9-9 3.96-9 9 3.96 9 9 9m-54 18c5.04 0 9-3.96 9-9s-3.96-9-9-9-9 3.96-9 9 3.96 9 9 9m18 0c5.04 0 9-3.96 9-9s-3.96-9-9-9-9 3.96-9 9 3.96 9 9 9m18 0c5.04 0 9-3.96 9-9s-3.96-9-9-9-9 3.96-9 9 3.96 9 9 9m18 0c5.04 0 9-3.96 9-9s-3.96-9-9-9-9 3.96-9 9 3.96 9 9 9m18 0c5.04 0 9-3.96 9-9s-3.96-9-9-9-9 3.96-9 9 3.96 9 9 9m18 0c5.04 0 9-3.96 9-9s-3.96-9-9-9-9 3.96-9 9 3.96 9 9 9m-108 0c5.04 0 9-3.96 9-9s-3.96-9-9-9-9 3.96-9 9 3.96 9 9 9m18 18c5.04 0 9-3.96 9-9s-3.96-9-9-9-9 3.96-9 9 3.96 9 9 9m-18 0c5.04 0 9-3.96 9-9s-3.96-9-9-9-9 3.96-9 9 3.96 9 9 9m18 18c5.04 0 9-3.96 9-9s-3.96-9-9-9-9 3.96-9 9 3.96 9 9 9m18 0c5.04 0 9-3.96 9-9s-3.96-9-9-9-9 3.96-9 9 3.96 9 9 9m18 0c5.04 0 9-3.96 9-9s-3.96-9-9-9-9 3.96-9 9 3.96 9 9 9m18 0c5.04 0 9-3.96 9-9s-3.96-9-9-9-9 3.96-9 9 3.96 9 9 9m18 0c5.04 0 9-3.96 9-9s-3.96-9-9-9-9 3.96-9 9 3.96 9 9 9m18 0c5.04 0 9-3.96 9-9s-3.96-9-9-9-9 3.96-9 9 3.96 9 9 9m-72 18c5.04 0 9-3.96 9-9s-3.96-9-9-9-9 3.96-9 9 3.96 9 9 9m18 0c5.04 0 9-3.96 9-9s-3.96-9-9-9-9 3.96-9 9 3.96 9 9 9m18 0c5.04 0 9-3.96 9-9s-3.96-9-9-9-9 3.96-9 9 3.96 9 9 9m18 0c5.04 0 9-3.96 9-9s-3.96-9-9-9-9 3.96-9 9 3.96 9 9 9m90-162c5.04 0 9-3.96 9-9s-3.96-9-9-9-9 3.96-9 9 3.96 9 9 9m-18 18c5.04 0 9-3.96 9-9s-3.96-9-9-9-9 3.96-9 9 3.96 9 9 9m18 0c5.04 0 9-3.96 9-9s-3.96-9-9-9-9 3.96-9 9 3.96 9 9 9m-36 18c5.04 0 9-3.96 9-9s-3.96-9-9-9-9 3.96-9 9 3.96 9 9 9m36 0c5.04 0 9-3.96 9-9s-3.96-9-9-9-9 3.96-9 9 3.96 9 9 9m54 0c5.04 0 9-3.96 9-9s-3.96-9-9-9-9 3.96-9 9 3.96 9 9 9m-18 0c5.04 0 9-3.96 9-9s-3.96-9-9-9-9 3.96-9 9 3.96 9 9 9m-18 0c5.04 0 9-3.96 9-9s-3.96-9-9-9-9 3.96-9 9 3.96 9 9 9m-36 0c5.04 0 9-3.96 9-9s-3.96-9-9-9-9 3.96-9 9 3.96 9 9 9m-36 18c5.04 0 9-3.96 9-9s-3.96-9-9-9-9 3.96-9 9 3.96 9 9 9m54 0c5.04 0 9-3.96 9-9s-3.96-9-9-9-9 3.96-9 9 3.96 9 9 9m36 0c5.04 0 9-3.96 9-9s-3.96-9-9-9-9 3.96-9 9 3.96 9 9 9m-18 0c5.04 0 9-3.96 9-9s-3.96-9-9-9-9 3.96-9 9 3.96 9 9 9m-54 0c5.04 0 9-3.96 9-9s-3.96-9-9-9-9 3.96-9 9 3.96 9 9 9m18 0c5.04 0 9-3.96 9-9s-3.96-9-9-9-9 3.96-9 9 3.96 9 9 9m18 18c5.04 0 9-3.96 9-9s-3.96-9-9-9-9 3.96-9 9 3.96 9 9 9m-18 0c5.04 0 9-3.96 9-9s-3.96-9-9-9-9 3.96-9 9 3.96 9 9 9m0 18c5.04 0 9-3.96 9-9s-3.96-9-9-9-9 3.96-9 9 3.96 9 9 9m18 0c5.04 0 9-3.96 9-9s-3.96-9-9-9-9 3.96-9 9 3.96 9 9 9m-18 18c5.04 0 9-3.96 9-9s-3.96-9-9-9-9 3.96-9 9 3.96 9 9 9m18 0c5.04 0 9-3.96 9-9s-3.96-9-9-9-9 3.96-9 9 3.96 9 9 9m-18 18c5.04 0 9-3.96 9-9s-3.96-9-9-9-9 3.96-9 9 3.96 9 9 9m18 0c5.04 0 9-3.96 9-9s-3.96-9-9-9-9 3.96-9 9 3.96 9 9 9m18 18c5.04 0 9-3.96 9-9s-3.96-9-9-9-9 3.96-9 9 3.96 9 9 9m18 0c5.04 0 9-3.96 9-9s-3.96-9-9-9-9 3.96-9 9 3.96 9 9 9m-54 0c5.04 0 9-3.96 9-9s-3.96-9-9-9-9 3.96-9 9 3.96 9 9 9m18 0c5.04 0 9-3.96 9-9s-3.96-9-9-9-9 3.96-9 9 3.96 9 9 9m54 0c5.04 0 9-3.96 9-9s-3.96-9-9-9-9 3.96-9 9 3.96 9 9 9m-36 18c5.04 0 9-3.96 9-9s-3.96-9-9-9-9 3.96-9 9 3.96 9 9 9m-18 0c5.04 0 9-3.96 9-9s-3.96-9-9-9-9 3.96-9 9 3.96 9 9 9m36 0c5.04 0 9-3.96 9-9s-3.96-9-9-9-9 3.96-9 9 3.96 9 9 9"/></svg>